<svg width="68" height="32" viewBox="0 0 68 32" fill="none" xmlns="http://www.w3.org/2000/svg">
<g filter="url(#filter0_d)">
<path fill-rule="evenodd" clip-rule="evenodd" d="M30.1976 4.76667C30.1976 5.81667 30.0294 7.63333 29.6087 9.75C28.6833 9.71667 27.4383 9.75 27.4551 9.75C27.8925 7.63333 28.0776 5.78333 28.0776 4.75C28.0776 2.1 27.2364 2.1 26.883 2.1C22.3065 2.1 12.0934 15.1667 6.7261 23.3833C6.40641 23.8833 5.75022 24.0167 5.26228 23.7C4.75752 23.3833 4.62291 22.7333 4.9426 22.25L4.95401 22.2327C5.18113 21.8881 8.70145 16.5464 12.9684 11.2833C19.1097 3.68333 23.6694 0 26.883 0C28.3973 0 30.1976 0.833333 30.1976 4.76667ZM42.1943 7.74976C42.1943 8.66103 41.4485 9.39977 40.5286 9.39977C39.6086 9.39977 38.8628 8.66103 38.8628 7.74976C38.8628 6.83849 39.6086 6.09976 40.5286 6.09976C41.4485 6.09976 42.1943 6.83849 42.1943 7.74976ZM47.0735 15.45C46.5183 16.2167 45.8789 16.9834 45.1554 17.7167C42.5811 20.3334 39.5862 21.9 37.1465 21.9C35.8846 21.9 35.262 21.3667 35.262 20.3167C35.262 19.2167 35.8677 17.1 38.7954 13.35C39.0309 13.05 39.0814 12.6667 38.9468 12.3167C38.8122 11.9667 38.5093 11.7167 38.1392 11.6667C30.9547 10.4834 21.3473 9.9167 16.4175 14.0667C13.961 16.1334 13.7591 18.4334 13.7591 19.1C13.7591 21.9 15.9127 24 18.7562 24C22.6261 24 25.8061 21.1167 27.9429 15.6334C28.1617 15.0834 28.3636 14.5167 28.5486 13.95C27.7578 13.95 27.0007 13.9834 26.294 14.0334C24.8639 18.1334 22.4578 21.9 18.7562 21.9C16.8718 21.9 15.8791 20.5 15.8791 19.1C15.8791 18.2167 16.3838 16.85 17.7803 15.6667C20.0518 13.7667 25.0658 11.9 36.0696 13.4667C34.1011 16.25 33.142 18.5 33.142 20.3167C33.142 23.0334 35.3125 24 37.1633 24C40.2087 24 43.6748 22.25 46.6865 19.1834C47.6792 18.1834 48.5373 17.1167 49.244 16.05C47.8475 15.9834 47.0735 15.45 47.0735 15.45ZM61.8465 18.6832C62.2839 18.2998 62.9569 18.3498 63.3439 18.7832C63.7477 19.2332 63.6973 19.8832 63.2766 20.2665C61.6782 21.6498 58.515 23.9832 55.2845 23.9832C53.4001 23.9832 51.4988 22.8165 51.4988 20.1832C51.4988 18.6332 52.1718 16.7498 53.501 14.5498C52.3905 14.8665 51.2464 15.0498 50.2032 15.0498C48.8067 15.0498 47.4775 14.6332 46.468 13.8665C45.2902 12.9832 44.6508 11.6832 44.6508 10.2165C44.6508 7.49984 46.3502 6.08317 48.0496 6.08317C49.9845 6.08317 51.381 7.6165 51.4315 9.78317C51.4483 10.4165 51.3642 11.1165 51.1791 11.8332C50.035 12.0832 49.0086 11.7165 49.0086 11.7165C49.2105 11.0332 49.3283 10.3998 49.3115 9.8165C49.3115 9.43317 49.1937 8.18317 48.0496 8.18317C47.6121 8.18317 46.7708 8.6165 46.7708 10.2165C46.7708 11.5332 47.8477 12.9498 50.2032 12.9498C52.054 12.9498 54.3759 12.2165 55.9575 11.1332C56.395 10.8332 56.9839 10.8832 57.3372 11.2665C57.6906 11.6498 57.7242 12.2165 57.4045 12.6332C54.2582 16.6665 53.602 18.9665 53.602 20.1832C53.602 21.3165 54.174 21.8832 55.2677 21.8832C57.1185 21.8832 59.5077 20.7165 61.8465 18.6832Z" fill="#1B3889"/>
</g>
<defs>
<filter id="filter0_d" x="0" y="0" width="68.3871" height="32" filterUnits="userSpaceOnUse" color-interpolation-filters="sRGB">
<feFlood flood-opacity="0" result="BackgroundImageFix"/>
<feColorMatrix in="SourceAlpha" type="matrix" values="0 0 0 0 0 0 0 0 0 0 0 0 0 0 0 0 0 0 127 0"/>
<feOffset dy="4"/>
<feGaussianBlur stdDeviation="2"/>
<feColorMatrix type="matrix" values="0 0 0 0 0 0 0 0 0 0 0 0 0 0 0 0 0 0 0.25 0"/>
<feBlend mode="normal" in2="BackgroundImageFix" result="effect1_dropShadow"/>
<feBlend mode="normal" in="SourceGraphic" in2="effect1_dropShadow" result="shape"/>
</filter>
</defs>
</svg>
